<?xml version="1.0" encoding="UTF-8" standalone="no"?>
<!DOCTYPE svg PUBLIC "-//W3C//DTD SVG 1.1//EN" "http://www.w3.org/Graphics/SVG/1.1/DTD/svg11.dtd">
<svg version="1.1" xmlns="http://www.w3.org/2000/svg" xmlns:xlink="http://www.w3.org/1999/xlink" preserveAspectRatio="xMidYMid meet" viewBox="0 0 400 200" width="400" height="200"><defs><path d="M0 200L0 0L400 0L400 198.15L0 200ZM322.42 126.36L294.71 175.9L322.42 175.9L334.96 154.1L347.51 175.9L373.89 175.9L348.81 126.36L373.89 76.83L347.51 76.83L334.96 99.86L322.42 76.83L295.24 76.83L322.42 126.36ZM133.05 50.08L238.12 51.07L239.16 175.9L267.13 175.9L267.13 51.07L373.89 51.07L373.89 23.82L133.05 23.82L133.05 50.08ZM133.05 175.9L214.34 175.9L214.34 74.6L134.1 74.6L133.05 175.9ZM24.74 175.9L107.59 175.9L108.64 91.94L102.63 91.94L102.63 83.51L108.64 83.51L107.59 22.58L24.74 22.58L24.74 175.9ZM54.02 150.64L54.02 102.59L77.54 102.59L76.75 150.64L54.02 150.64ZM161.08 149.4L161.08 101.1L185.12 101.1L185.12 149.4L161.08 149.4ZM54.02 73.11L54.02 52.06L77.54 52.06L77.54 73.11L54.02 73.11Z" id="bEjsI7NuF"></path></defs><g><g><g><use xlink:href="#bEjsI7NuF" opacity="1" fill="#fa9746" fill-opacity="1"></use><g><use xlink:href="#bEjsI7NuF" opacity="1" fill-opacity="0" stroke="#ffffff" stroke-width="1" stroke-opacity="1"></use></g></g></g></g></svg>